# Blender v2.74 (sub 0) OBJ File: ''
# www.blender.org
mtllib cube.mtl
o Merged_Meshes
v 0.550000 0.550000 0.550000
v 0.550000 0.550000 -0.550000
v 0.550000 0.450000 0.550000
v 0.550000 0.450000 -0.550000
v 0.450000 0.550000 -0.550000
v 0.450000 0.550000 0.550000
v 0.450000 0.450000 -0.550000
v 0.450000 0.450000 0.550000
v -0.450000 0.550000 0.550000
v -0.450000 0.550000 -0.550000
v -0.450000 0.450000 0.550000
v -0.450000 0.450000 -0.550000
v -0.550000 0.550000 -0.550000
v -0.550000 0.550000 0.550000
v -0.550000 0.450000 -0.550000
v -0.550000 0.450000 0.550000
v -0.450000 -0.450000 0.550000
v -0.450000 -0.450000 -0.550000
v -0.450000 -0.550000 0.550000
v -0.450000 -0.550000 -0.550000
v -0.550000 -0.450000 -0.550000
v -0.550000 -0.450000 0.550000
v -0.550000 -0.550000 -0.550000
v -0.550000 -0.550000 0.550000
v 0.550000 -0.450000 0.550000
v 0.550000 -0.450000 -0.550000
v 0.550000 -0.550000 0.550000
v 0.550000 -0.550000 -0.550000
v 0.450000 -0.450000 -0.550000
v 0.450000 -0.450000 0.550000
v 0.450000 -0.550000 -0.550000
v 0.450000 -0.550000 0.550000
v 0.550000 -0.550000 0.550000
v 0.550000 0.550000 0.550000
v 0.550000 -0.550000 0.450000
v 0.550000 0.550000 0.450000
v 0.450000 0.550000 0.550000
v 0.450000 -0.550000 0.550000
v 0.450000 0.550000 0.450000
v 0.450000 -0.550000 0.450000
v -0.450000 -0.550000 -0.450000
v -0.450000 0.550000 -0.450000
v -0.450000 -0.550000 -0.550000
v -0.450000 0.550000 -0.550000
v -0.550000 0.550000 -0.450000
v -0.550000 -0.550000 -0.450000
v -0.550000 0.550000 -0.550000
v -0.550000 -0.550000 -0.550000
v -0.450000 -0.550000 0.550000
v -0.450000 0.550000 0.550000
v -0.450000 -0.550000 0.450000
v -0.450000 0.550000 0.450000
v -0.550000 0.550000 0.550000
v -0.550000 -0.550000 0.550000
v -0.550000 0.550000 0.450000
v -0.550000 -0.550000 0.450000
v 0.550000 -0.550000 -0.450000
v 0.550000 0.550000 -0.450000
v 0.550000 -0.550000 -0.550000
v 0.550000 0.550000 -0.550000
v 0.450000 0.550000 -0.450000
v 0.450000 -0.550000 -0.450000
v 0.450000 0.550000 -0.550000
v 0.450000 -0.550000 -0.550000
v 0.550000 0.550000 0.450000
v -0.550000 0.550000 0.450000
v 0.550000 0.450000 0.450000
v -0.550000 0.450000 0.450000
v -0.550000 0.550000 0.550000
v 0.550000 0.550000 0.550000
v -0.550000 0.450000 0.550000
v 0.550000 0.450000 0.550000
v 0.550000 -0.450000 0.450000
v -0.550000 -0.450000 0.450000
v 0.550000 -0.550000 0.450000
v -0.550000 -0.550000 0.450000
v -0.550000 -0.450000 0.550000
v 0.550000 -0.450000 0.550000
v -0.550000 -0.550000 0.550000
v 0.550000 -0.550000 0.550000
v 0.550000 -0.450000 -0.550000
v -0.550000 -0.450000 -0.550000
v 0.550000 -0.550000 -0.550000
v -0.550000 -0.550000 -0.550000
v -0.550000 -0.450000 -0.450000
v 0.550000 -0.450000 -0.450000
v -0.550000 -0.550000 -0.450000
v 0.550000 -0.550000 -0.450000
v 0.550000 0.550000 -0.550000
v -0.550000 0.550000 -0.550000
v 0.550000 0.450000 -0.550000
v -0.550000 0.450000 -0.550000
v -0.550000 0.550000 -0.450000
v 0.550000 0.550000 -0.450000
v -0.550000 0.450000 -0.450000
v 0.550000 0.450000 -0.450000
v 0.500000 0.500000 0.500000
v 0.500000 0.500000 -0.500000
v 0.500000 -0.500000 0.500000
v 0.500000 -0.500000 -0.500000
v -0.500000 0.500000 -0.500000
v -0.500000 0.500000 0.500000
v -0.500000 -0.500000 -0.500000
v -0.500000 -0.500000 0.500000
vt 0.000000 1.000000
vt 0.000000 0.000000
vt 1.000000 0.000000
vt 1.000000 1.000000
vn 1.000000 0.000000 0.000000
vn -1.000000 0.000000 0.000000
vn 0.000000 1.000000 0.000000
vn 0.000000 -1.000000 0.000000
vn 0.000000 0.000000 1.000000
vn 0.000000 0.000000 -1.000000
usemtl b0b0b0
s 1
f 1/1/1 3/2/1 4/3/1 2/4/1
f 5/1/2 7/2/2 8/3/2 6/4/2
f 5/1/3 6/2/3 1/3/3 2/4/3
f 8/1/4 7/2/4 4/3/4 3/4/4
f 6/1/5 8/2/5 3/3/5 1/4/5
f 2/1/6 4/2/6 7/3/6 5/4/6
f 9/1/1 11/2/1 12/3/1 10/4/1
f 13/1/2 15/2/2 16/3/2 14/4/2
f 13/1/3 14/2/3 9/3/3 10/4/3
f 16/1/4 15/2/4 12/3/4 11/4/4
f 14/1/5 16/2/5 11/3/5 9/4/5
f 10/1/6 12/2/6 15/3/6 13/4/6
f 17/1/1 19/2/1 20/3/1 18/4/1
f 21/1/2 23/2/2 24/3/2 22/4/2
f 21/1/3 22/2/3 17/3/3 18/4/3
f 24/1/4 23/2/4 20/3/4 19/4/4
f 22/1/5 24/2/5 19/3/5 17/4/5
f 18/1/6 20/2/6 23/3/6 21/4/6
f 25/1/1 27/2/1 28/3/1 26/4/1
f 29/1/2 31/2/2 32/3/2 30/4/2
f 29/1/3 30/2/3 25/3/3 26/4/3
f 32/1/4 31/2/4 28/3/4 27/4/4
f 30/1/5 32/2/5 27/3/5 25/4/5
f 26/1/6 28/2/6 31/3/6 29/4/6
f 33/1/1 35/2/1 36/3/1 34/4/1
f 37/1/2 39/2/2 40/3/2 38/4/2
f 37/1/5 38/2/5 33/3/5 34/4/5
f 40/1/6 39/2/6 36/3/6 35/4/6
f 38/1/4 40/2/4 35/3/4 33/4/4
f 34/1/3 36/2/3 39/3/3 37/4/3
f 41/1/1 43/2/1 44/3/1 42/4/1
f 45/1/2 47/2/2 48/3/2 46/4/2
f 45/1/5 46/2/5 41/3/5 42/4/5
f 48/1/6 47/2/6 44/3/6 43/4/6
f 46/1/4 48/2/4 43/3/4 41/4/4
f 42/1/3 44/2/3 47/3/3 45/4/3
f 49/1/1 51/2/1 52/3/1 50/4/1
f 53/1/2 55/2/2 56/3/2 54/4/2
f 53/1/5 54/2/5 49/3/5 50/4/5
f 56/1/6 55/2/6 52/3/6 51/4/6
f 54/1/4 56/2/4 51/3/4 49/4/4
f 50/1/3 52/2/3 55/3/3 53/4/3
f 57/1/1 59/2/1 60/3/1 58/4/1
f 61/1/2 63/2/2 64/3/2 62/4/2
f 61/1/5 62/2/5 57/3/5 58/4/5
f 64/1/6 63/2/6 60/3/6 59/4/6
f 62/1/4 64/2/4 59/3/4 57/4/4
f 58/1/3 60/2/3 63/3/3 61/4/3
f 65/1/6 67/2/6 68/3/6 66/4/6
f 69/1/5 71/2/5 72/3/5 70/4/5
f 69/1/3 70/2/3 65/3/3 66/4/3
f 72/1/4 71/2/4 68/3/4 67/4/4
f 70/1/1 72/2/1 67/3/1 65/4/1
f 66/1/2 68/2/2 71/3/2 69/4/2
f 73/1/6 75/2/6 76/3/6 74/4/6
f 77/1/5 79/2/5 80/3/5 78/4/5
f 77/1/3 78/2/3 73/3/3 74/4/3
f 80/1/4 79/2/4 76/3/4 75/4/4
f 78/1/1 80/2/1 75/3/1 73/4/1
f 74/1/2 76/2/2 79/3/2 77/4/2
f 81/1/6 83/2/6 84/3/6 82/4/6
f 85/1/5 87/2/5 88/3/5 86/4/5
f 85/1/3 86/2/3 81/3/3 82/4/3
f 88/1/4 87/2/4 84/3/4 83/4/4
f 86/1/1 88/2/1 83/3/1 81/4/1
f 82/1/2 84/2/2 87/3/2 85/4/2
f 89/1/6 91/2/6 92/3/6 90/4/6
f 93/1/5 95/2/5 96/3/5 94/4/5
f 93/1/3 94/2/3 89/3/3 90/4/3
f 96/1/4 95/2/4 92/3/4 91/4/4
f 94/1/1 96/2/1 91/3/1 89/4/1
f 90/1/2 92/2/2 95/3/2 93/4/2
f 97/1/1 99/2/1 100/3/1 98/4/1
f 101/1/2 103/2/2 104/3/2 102/4/2
f 101/1/3 102/2/3 97/3/3 98/4/3
f 104/1/4 103/2/4 100/3/4 99/4/4
f 102/1/5 104/2/5 99/3/5 97/4/5
f 98/1/6 100/2/6 103/3/6 101/4/6
